<svg xmlns="http://www.w3.org/2000/svg" xmlns:xlink="http://www.w3.org/1999/xlink" width="150" zoomAndPan="magnify" viewBox="0 0 112.5 56.249996" height="75" preserveAspectRatio="xMidYMid meet" version="1.0"><defs><g/><clipPath id="82735f25e7"><path d="M 71.0625 4.144531 L 108.808594 4.144531 L 108.808594 46 L 71.0625 46 Z M 71.0625 4.144531 " clip-rule="nonzero"/></clipPath></defs><g clip-path="url(#82735f25e7)"><path fill="#ed5f1e" d="M 85.949219 4.246094 C 85.757812 4.226562 85.617188 4.246094 85.515625 4.246094 L 85.445312 4.246094 C 84.046875 4.347656 82.664062 4.449219 81.230469 4.886719 L 81.203125 4.894531 L 81.175781 4.90625 C 80.238281 5.257812 79.421875 5.621094 79.082031 5.558594 C 79.039062 5.539062 79.007812 5.523438 78.882812 5.460938 C 78.714844 5.375 78.410156 5.242188 78.039062 5.242188 C 77.777344 5.242188 77.519531 5.277344 77.246094 5.390625 C 76.972656 5.5 76.648438 5.699219 76.453125 6.089844 C 76.316406 6.363281 76.300781 6.746094 76.328125 6.933594 C 76.332031 6.886719 76.34375 6.90625 76.058594 7.105469 C 75.742188 7.324219 75.125 7.625 74.886719 8.457031 L 74.886719 8.472656 L 74.878906 8.488281 C 74.699219 9.214844 74.792969 9.679688 74.785156 9.757812 C 74.730469 9.933594 74.433594 10.109375 73.839844 10.46875 L 73.800781 10.492188 C 72.804688 11.15625 71.945312 12.003906 71.367188 13.167969 C 71.265625 13.367188 71.0625 13.679688 71.0625 14.210938 C 71.0625 14.910156 71.433594 15.238281 71.65625 15.476562 C 71.878906 15.714844 72.070312 15.925781 72.027344 15.863281 L 72.050781 15.898438 L 72.078125 15.929688 C 72.144531 16.011719 72.167969 16.3125 72.011719 16.785156 C 71.890625 17.152344 71.542969 17.601562 71.265625 18.269531 C 71.058594 18.695312 71.0625 19.097656 71.0625 19.195312 L 71.0625 19.609375 L 71.699219 20.242188 L 71.75 20.28125 C 72.617188 20.957031 73.359375 21.613281 74 22.339844 L 73.976562 22.308594 C 74.484375 22.949219 75.003906 23.183594 75.429688 23.4375 C 75.980469 23.769531 76.710938 24.265625 77.734375 24.058594 C 78.171875 23.972656 78.472656 23.804688 78.699219 23.707031 C 78.921875 23.605469 79.050781 23.582031 79.035156 23.582031 C 78.964844 23.582031 79.085938 23.589844 79.257812 23.640625 C 79.410156 23.683594 79.640625 23.742188 79.925781 23.757812 C 81.019531 23.914062 81.777344 23.339844 82.101562 23.210938 C 82.070312 23.21875 82.222656 23.1875 82.378906 23.226562 C 82.535156 23.265625 82.695312 23.363281 82.714844 23.386719 L 82.789062 23.457031 L 82.867188 23.511719 C 82.804688 23.46875 82.839844 23.484375 82.941406 23.632812 C 83.039062 23.777344 83.210938 24.050781 83.539062 24.285156 C 84.035156 24.644531 84.554688 24.667969 85.035156 24.589844 C 85.054688 24.621094 85.0625 24.617188 85.078125 24.648438 C 85.179688 24.847656 85.214844 25.109375 85.214844 24.976562 C 85.214844 25.011719 85.199219 25.089844 85.15625 25.289062 C 85.113281 25.457031 85.054688 25.75 85.125 26.105469 C 85.230469 27.207031 85.433594 28.15625 86.222656 29.175781 C 86.828125 29.949219 87.089844 30.5625 87.101562 31.507812 C 87.0625 31.875 86.886719 32.308594 86.65625 32.851562 C 86.414062 33.414062 86.109375 34.09375 86.109375 34.941406 C 86.109375 35.972656 86.660156 36.726562 87.089844 37.3125 C 87.523438 37.902344 87.867188 38.390625 87.9375 38.671875 C 87.988281 38.878906 87.992188 39.371094 88.128906 39.949219 C 88.367188 40.996094 88.824219 41.898438 89.351562 42.742188 L 89.359375 42.753906 L 89.367188 42.769531 C 89.6875 43.25 89.78125 43.292969 89.800781 43.316406 L 89.800781 43.710938 C 89.800781 44.742188 90.460938 45.488281 91.324219 45.835938 L 91.351562 45.84375 L 91.378906 45.855469 C 92.101562 46.097656 92.601562 45.878906 93 45.777344 C 93.601562 45.714844 94.363281 45.601562 95.140625 45.34375 C 95.96875 45.074219 96.824219 44.699219 97.394531 43.882812 L 97.453125 43.800781 L 97.492188 43.707031 C 97.761719 43.082031 98.121094 42.484375 98.476562 42.125 C 98.625 41.976562 98.828125 41.789062 99.019531 41.480469 C 99.128906 41.300781 99.109375 40.992188 99.144531 40.71875 L 99.367188 40.71875 L 99.464844 40.699219 C 100.0625 40.582031 100.492188 40.140625 100.691406 39.714844 C 100.890625 39.292969 100.9375 38.867188 100.832031 38.410156 C 100.71875 37.90625 100.453125 37.566406 100.277344 37.351562 C 100.144531 37.1875 100.109375 37.125 100.066406 37.058594 C 100.085938 37.023438 100.085938 37 100.121094 36.96875 C 100.285156 36.785156 100.539062 36.578125 100.667969 36.496094 C 101.238281 36.222656 102.148438 35.890625 102.652344 34.890625 L 102.671875 34.851562 L 102.6875 34.8125 C 102.96875 34.101562 102.96875 33.289062 102.6875 32.574219 L 102.738281 32.753906 C 102.511719 31.617188 102.132812 30.753906 102.050781 29.960938 L 102.046875 29.910156 L 102.035156 29.863281 C 101.941406 29.375 102.320312 28.59375 102.816406 27.699219 C 103.101562 27.277344 103.582031 26.851562 104.105469 26.503906 L 104.125 26.488281 L 104.148438 26.472656 C 105.1875 25.695312 106.574219 24.546875 107.625 23.246094 C 108.15625 22.597656 108.605469 21.914062 108.855469 21.152344 C 109.109375 20.394531 109.140625 19.496094 108.710938 18.710938 L 108.121094 17.636719 L 107.191406 18.4375 C 106.753906 18.808594 105.671875 19.210938 104.859375 19.296875 C 104.730469 19.285156 104.59375 19.261719 104.570312 19.273438 C 104.546875 19.253906 104.535156 19.230469 104.542969 19.246094 L 104.488281 19.136719 L 104.40625 19.042969 C 104.011719 18.582031 103.710938 17.507812 102.707031 16.644531 L 102.683594 16.625 L 102.65625 16.605469 C 102.171875 16.242188 101.898438 16.09375 101.761719 15.90625 L 101.71875 15.847656 L 101.667969 15.800781 C 101.503906 15.636719 101.308594 15.191406 101.109375 14.59375 L 101.101562 14.578125 C 100.566406 13.042969 100.5625 11.621094 99.789062 9.746094 L 99.777344 9.710938 L 99.761719 9.679688 C 99.675781 9.507812 99.566406 9.25 99.359375 8.949219 C 99.144531 8.648438 98.683594 8.234375 98.070312 8.234375 L 97.300781 8.234375 L 97.230469 8.242188 C 96.808594 8.300781 96.316406 8.183594 95.695312 7.9375 C 95.085938 7.703125 94.386719 7.367188 93.566406 7.179688 C 93.300781 7.101562 93.03125 7.054688 92.722656 7.078125 C 92.410156 7.101562 92.019531 7.191406 91.683594 7.527344 C 91.34375 7.871094 91.285156 8.210938 91.230469 8.425781 C 91.171875 8.390625 91.070312 8.3125 90.769531 8.117188 C 90.070312 7.625 89.265625 7.382812 88.519531 7.132812 C 88.089844 6.996094 87.851562 6.867188 87.523438 6.726562 C 87.53125 6.707031 87.550781 6.671875 87.554688 6.652344 C 87.722656 6.15625 87.625 5.777344 87.488281 5.433594 C 87.347656 5.089844 87.144531 4.769531 86.765625 4.511719 L 86.714844 4.480469 L 86.65625 4.449219 C 86.378906 4.3125 86.144531 4.261719 85.949219 4.246094 Z M 107.636719 31.15625 C 107.339844 31.753906 106.941406 32.449219 106.441406 32.746094 C 106.046875 32.949219 105.546875 33.148438 105.347656 33.546875 C 105.050781 34.046875 105.347656 34.644531 105.246094 35.140625 C 105.246094 35.339844 105.148438 35.539062 105.046875 35.738281 C 104.949219 36.234375 105.050781 36.835938 105.246094 37.332031 C 105.347656 37.632812 105.546875 38.03125 105.847656 38.128906 C 106.046875 38.128906 106.34375 38.03125 106.539062 37.832031 C 106.742188 37.632812 106.941406 37.234375 107.039062 36.9375 C 107.140625 36.636719 107.140625 36.335938 107.140625 36.039062 C 107.242188 35.140625 107.738281 34.242188 107.9375 33.347656 C 108.039062 32.746094 108.039062 32.152344 107.9375 31.554688 C 107.835938 31.351562 107.738281 31.15625 107.636719 31.15625 Z M 98.667969 40.71875 L 98.671875 40.71875 C 98.671875 40.722656 98.667969 40.722656 98.667969 40.726562 C 98.640625 40.734375 98.734375 40.71875 98.667969 40.71875 Z M 98.667969 40.71875 " fill-opacity="1" fill-rule="nonzero"/></g><g fill="#ffffff" fill-opacity="1"><g transform="translate(1.478057, 36.963435)"><g><path d="M 0.984375 -1.40625 C 2.617188 -2.71875 3.898438 -3.796875 4.828125 -4.640625 C 5.753906 -5.492188 6.535156 -6.378906 7.171875 -7.296875 C 7.816406 -8.210938 8.140625 -9.117188 8.140625 -10.015625 C 8.140625 -10.847656 7.9375 -11.503906 7.53125 -11.984375 C 7.125 -12.472656 6.46875 -12.71875 5.5625 -12.71875 C 4.6875 -12.71875 4.003906 -12.441406 3.515625 -11.890625 C 3.035156 -11.347656 2.78125 -10.617188 2.75 -9.703125 L 1.046875 -9.703125 C 1.097656 -11.148438 1.535156 -12.265625 2.359375 -13.046875 C 3.179688 -13.828125 4.242188 -14.21875 5.546875 -14.21875 C 6.867188 -14.21875 7.921875 -13.847656 8.703125 -13.109375 C 9.484375 -12.378906 9.875 -11.375 9.875 -10.09375 C 9.875 -9.019531 9.554688 -7.976562 8.921875 -6.96875 C 8.285156 -5.957031 7.5625 -5.066406 6.75 -4.296875 C 5.9375 -3.535156 4.898438 -2.644531 3.640625 -1.625 L 10.28125 -1.625 L 10.28125 -0.15625 L 0.984375 -0.15625 Z M 0.984375 -1.40625 "/></g></g></g><g fill="#ffffff" fill-opacity="1"><g transform="translate(12.589607, 36.963435)"><g><path d="M 0.734375 -12.375 L 0.734375 -13.96875 L 4.375 -13.96875 L 4.375 0 L 2.59375 0 L 2.59375 -12.375 Z M 0.734375 -12.375 "/></g></g></g><g fill="#ffffff" fill-opacity="1"><g transform="translate(18.773425, 36.963435)"><g><path d="M 9.78125 -13.46875 L 9.78125 -12.046875 L 6.109375 -12.046875 L 6.109375 0 L 4.34375 0 L 4.34375 -12.046875 L 0.65625 -12.046875 L 0.65625 -13.46875 Z M 9.78125 -13.46875 "/></g></g></g><g fill="#ffffff" fill-opacity="1"><g transform="translate(29.22794, 36.963435)"><g><path d="M 15.59375 -10.59375 L 12.296875 0 L 10.46875 0 L 7.921875 -8.40625 L 5.375 0 L 3.5625 0 L 0.234375 -10.59375 L 2.03125 -10.59375 L 4.46875 -1.703125 L 7.09375 -10.59375 L 8.890625 -10.59375 L 11.46875 -1.6875 L 13.859375 -10.59375 Z M 15.59375 -10.59375 "/></g></g></g><g fill="#ffffff" fill-opacity="1"><g transform="translate(45.073978, 36.963435)"><g><path d="M 11.15625 -5.703125 C 11.15625 -5.367188 11.132812 -5.015625 11.09375 -4.640625 L 2.625 -4.640625 C 2.6875 -3.597656 3.039062 -2.78125 3.6875 -2.1875 C 4.34375 -1.601562 5.132812 -1.3125 6.0625 -1.3125 C 6.820312 -1.3125 7.457031 -1.488281 7.96875 -1.84375 C 8.476562 -2.195312 8.835938 -2.671875 9.046875 -3.265625 L 10.9375 -3.265625 C 10.65625 -2.242188 10.085938 -1.414062 9.234375 -0.78125 C 8.390625 -0.144531 7.332031 0.171875 6.0625 0.171875 C 5.0625 0.171875 4.164062 -0.0507812 3.375 -0.5 C 2.582031 -0.945312 1.957031 -1.585938 1.5 -2.421875 C 1.050781 -3.253906 0.828125 -4.21875 0.828125 -5.3125 C 0.828125 -6.40625 1.046875 -7.363281 1.484375 -8.1875 C 1.921875 -9.019531 2.535156 -9.65625 3.328125 -10.09375 C 4.117188 -10.539062 5.03125 -10.765625 6.0625 -10.765625 C 7.070312 -10.765625 7.960938 -10.546875 8.734375 -10.109375 C 9.503906 -9.671875 10.097656 -9.066406 10.515625 -8.296875 C 10.941406 -7.535156 11.15625 -6.671875 11.15625 -5.703125 Z M 9.328125 -6.0625 C 9.328125 -6.738281 9.179688 -7.316406 8.890625 -7.796875 C 8.597656 -8.285156 8.195312 -8.65625 7.6875 -8.90625 C 7.175781 -9.15625 6.609375 -9.28125 5.984375 -9.28125 C 5.097656 -9.28125 4.34375 -8.992188 3.71875 -8.421875 C 3.09375 -7.859375 2.734375 -7.070312 2.640625 -6.0625 Z M 9.328125 -6.0625 "/></g></g></g><g fill="#ffffff" fill-opacity="1"><g transform="translate(57.055128, 36.963435)"><g><path d="M 3.25 -14.296875 L 3.25 0 L 1.484375 0 L 1.484375 -14.296875 Z M 3.25 -14.296875 "/></g></g></g><g fill="#ffffff" fill-opacity="1"><g transform="translate(61.808939, 36.963435)"><g><path d="M 5.4375 -1.625 L 8.71875 -10.59375 L 10.59375 -10.59375 L 6.4375 0 L 4.390625 0 L 0.234375 -10.59375 L 2.125 -10.59375 Z M 5.4375 -1.625 "/></g></g></g><g fill="#ffffff" fill-opacity="1"><g transform="translate(72.649941, 36.963435)"><g><path d="M 11.15625 -5.703125 C 11.15625 -5.367188 11.132812 -5.015625 11.09375 -4.640625 L 2.625 -4.640625 C 2.6875 -3.597656 3.039062 -2.78125 3.6875 -2.1875 C 4.34375 -1.601562 5.132812 -1.3125 6.0625 -1.3125 C 6.820312 -1.3125 7.457031 -1.488281 7.96875 -1.84375 C 8.476562 -2.195312 8.835938 -2.671875 9.046875 -3.265625 L 10.9375 -3.265625 C 10.65625 -2.242188 10.085938 -1.414062 9.234375 -0.78125 C 8.390625 -0.144531 7.332031 0.171875 6.0625 0.171875 C 5.0625 0.171875 4.164062 -0.0507812 3.375 -0.5 C 2.582031 -0.945312 1.957031 -1.585938 1.5 -2.421875 C 1.050781 -3.253906 0.828125 -4.21875 0.828125 -5.3125 C 0.828125 -6.40625 1.046875 -7.363281 1.484375 -8.1875 C 1.921875 -9.019531 2.535156 -9.65625 3.328125 -10.09375 C 4.117188 -10.539062 5.03125 -10.765625 6.0625 -10.765625 C 7.070312 -10.765625 7.960938 -10.546875 8.734375 -10.109375 C 9.503906 -9.671875 10.097656 -9.066406 10.515625 -8.296875 C 10.941406 -7.535156 11.15625 -6.671875 11.15625 -5.703125 Z M 9.328125 -6.0625 C 9.328125 -6.738281 9.179688 -7.316406 8.890625 -7.796875 C 8.597656 -8.285156 8.195312 -8.65625 7.6875 -8.90625 C 7.175781 -9.15625 6.609375 -9.28125 5.984375 -9.28125 C 5.097656 -9.28125 4.34375 -8.992188 3.71875 -8.421875 C 3.09375 -7.859375 2.734375 -7.070312 2.640625 -6.0625 Z M 9.328125 -6.0625 "/></g></g></g></svg>