<svg xmlns="http://www.w3.org/2000/svg" xmlns:xlink="http://www.w3.org/1999/xlink" width="40" zoomAndPan="magnify" viewBox="0 0 30 30.000001" height="40" preserveAspectRatio="xMidYMid meet" version="1.0"><defs><clipPath id="c6815717eb"><path d="M 0.484375 0 L 29.515625 0 L 29.515625 29.03125 L 0.484375 29.03125 Z M 0.484375 0 " clip-rule="nonzero"/></clipPath><clipPath id="e46f02527b"><path d="M 2.644531 0.867188 L 27.324219 0.867188 L 27.324219 28 L 2.644531 28 Z M 2.644531 0.867188 " clip-rule="nonzero"/></clipPath><clipPath id="f0b072a68b"><path d="M 28.5 26.128906 L 29.515625 26.128906 L 29.515625 29.03125 L 28.5 29.03125 Z M 28.5 26.128906 " clip-rule="nonzero"/></clipPath><clipPath id="8d1b65aca5"><path d="M 29.953125 26.128906 L 35.757812 26.128906 C 36.558594 26.128906 37.210938 26.777344 37.210938 27.582031 L 37.210938 33.386719 C 37.210938 34.1875 36.558594 34.839844 35.757812 34.839844 L 29.953125 34.839844 C 29.148438 34.839844 28.5 34.1875 28.5 33.386719 L 28.5 27.582031 C 28.5 26.777344 29.148438 26.128906 29.953125 26.128906 Z M 29.953125 26.128906 " clip-rule="nonzero"/></clipPath></defs><g clip-path="url(#c6815717eb)"><path fill="#ffffff" d="M 0.484375 0 L 29.515625 0 L 29.515625 29.03125 L 0.484375 29.03125 Z M 0.484375 0 " fill-opacity="1" fill-rule="nonzero"/><path fill="#ffffff" d="M 0.484375 0 L 29.515625 0 L 29.515625 29.03125 L 0.484375 29.03125 Z M 0.484375 0 " fill-opacity="1" fill-rule="nonzero"/></g><g clip-path="url(#e46f02527b)"><path fill="#ed5f1e" d="M 12.304688 0.933594 C 12.179688 0.921875 12.085938 0.933594 12.023438 0.933594 L 11.976562 0.933594 C 11.070312 1 10.171875 1.066406 9.242188 1.351562 L 9.226562 1.355469 L 9.207031 1.363281 C 8.597656 1.59375 8.070312 1.828125 7.847656 1.785156 C 7.820312 1.773438 7.800781 1.765625 7.71875 1.722656 C 7.609375 1.667969 7.414062 1.582031 7.171875 1.582031 C 7.003906 1.582031 6.832031 1.605469 6.65625 1.679688 C 6.480469 1.75 6.269531 1.878906 6.140625 2.132812 C 6.054688 2.308594 6.042969 2.558594 6.0625 2.679688 C 6.0625 2.648438 6.070312 2.660156 5.886719 2.789062 C 5.683594 2.933594 5.28125 3.128906 5.125 3.667969 L 5.125 3.679688 L 5.121094 3.6875 C 5.003906 4.160156 5.066406 4.460938 5.0625 4.511719 C 5.023438 4.625 4.832031 4.738281 4.445312 4.972656 L 4.421875 4.988281 C 3.773438 5.417969 3.21875 5.96875 2.84375 6.722656 C 2.777344 6.851562 2.644531 7.054688 2.644531 7.402344 C 2.644531 7.851562 2.886719 8.066406 3.03125 8.222656 C 3.175781 8.375 3.300781 8.511719 3.273438 8.472656 L 3.289062 8.496094 L 3.304688 8.515625 C 3.347656 8.566406 3.363281 8.765625 3.261719 9.070312 C 3.179688 9.308594 2.957031 9.601562 2.777344 10.03125 C 2.644531 10.3125 2.644531 10.570312 2.644531 10.632812 L 2.644531 10.902344 L 3.058594 11.3125 L 3.089844 11.339844 C 3.652344 11.777344 4.136719 12.203125 4.550781 12.675781 L 4.535156 12.65625 C 4.867188 13.070312 5.203125 13.222656 5.480469 13.386719 C 5.835938 13.601562 6.3125 13.921875 6.976562 13.789062 C 7.257812 13.734375 7.453125 13.625 7.597656 13.5625 C 7.746094 13.496094 7.828125 13.480469 7.820312 13.480469 C 7.773438 13.480469 7.851562 13.484375 7.960938 13.519531 C 8.0625 13.546875 8.210938 13.585938 8.394531 13.59375 C 9.105469 13.695312 9.597656 13.324219 9.808594 13.242188 C 9.785156 13.246094 9.886719 13.226562 9.988281 13.25 C 10.089844 13.277344 10.191406 13.339844 10.207031 13.355469 L 10.253906 13.398438 L 10.304688 13.433594 C 10.265625 13.40625 10.285156 13.417969 10.351562 13.515625 C 10.414062 13.605469 10.527344 13.785156 10.742188 13.933594 C 11.0625 14.171875 11.398438 14.1875 11.710938 14.136719 C 11.722656 14.15625 11.730469 14.152344 11.738281 14.171875 C 11.804688 14.300781 11.828125 14.472656 11.828125 14.386719 C 11.828125 14.40625 11.816406 14.457031 11.789062 14.585938 C 11.761719 14.695312 11.722656 14.886719 11.769531 15.117188 C 11.835938 15.832031 11.96875 16.449219 12.480469 17.109375 C 12.871094 17.609375 13.042969 18.007812 13.050781 18.625 C 13.027344 18.859375 12.914062 19.140625 12.761719 19.496094 C 12.605469 19.859375 12.40625 20.300781 12.40625 20.851562 C 12.40625 21.519531 12.765625 22.007812 13.042969 22.390625 C 13.324219 22.769531 13.546875 23.089844 13.59375 23.269531 C 13.625 23.40625 13.628906 23.726562 13.71875 24.097656 C 13.875 24.777344 14.167969 25.363281 14.511719 25.914062 L 14.515625 25.921875 L 14.523438 25.929688 C 14.730469 26.242188 14.789062 26.269531 14.800781 26.285156 L 14.800781 26.539062 C 14.800781 27.207031 15.230469 27.695312 15.789062 27.917969 L 15.808594 27.921875 L 15.824219 27.929688 C 16.296875 28.085938 16.621094 27.945312 16.878906 27.878906 C 17.269531 27.839844 17.761719 27.765625 18.269531 27.601562 C 18.804688 27.425781 19.359375 27.179688 19.730469 26.652344 L 19.769531 26.597656 L 19.792969 26.535156 C 19.96875 26.132812 20.199219 25.742188 20.433594 25.511719 C 20.527344 25.414062 20.660156 25.292969 20.785156 25.09375 C 20.855469 24.976562 20.839844 24.777344 20.863281 24.597656 L 21.007812 24.597656 L 21.070312 24.585938 C 21.460938 24.511719 21.738281 24.222656 21.871094 23.949219 C 22 23.675781 22.027344 23.398438 21.960938 23.101562 C 21.886719 22.773438 21.714844 22.554688 21.597656 22.414062 C 21.511719 22.308594 21.492188 22.269531 21.464844 22.226562 C 21.476562 22.203125 21.476562 22.1875 21.5 22.164062 C 21.605469 22.046875 21.769531 21.910156 21.855469 21.859375 C 22.222656 21.683594 22.8125 21.46875 23.140625 20.816406 L 23.164062 20.769531 C 23.347656 20.304688 23.347656 19.777344 23.164062 19.316406 L 23.195312 19.429688 C 23.050781 18.695312 22.804688 18.132812 22.75 17.617188 L 22.75 17.585938 L 22.742188 17.554688 C 22.679688 17.238281 22.925781 16.730469 23.246094 16.152344 C 23.433594 15.878906 23.742188 15.601562 24.085938 15.375 L 24.097656 15.363281 L 24.113281 15.355469 C 24.785156 14.851562 25.6875 14.105469 26.367188 13.265625 C 26.710938 12.84375 27.003906 12.398438 27.167969 11.90625 C 27.332031 11.414062 27.351562 10.828125 27.074219 10.320312 L 26.6875 9.625 L 26.085938 10.140625 C 25.800781 10.382812 25.101562 10.644531 24.574219 10.699219 C 24.488281 10.691406 24.402344 10.675781 24.386719 10.683594 C 24.371094 10.671875 24.363281 10.65625 24.367188 10.667969 L 24.332031 10.597656 L 24.28125 10.535156 C 24.023438 10.234375 23.828125 9.539062 23.175781 8.980469 L 23.160156 8.96875 L 23.144531 8.953125 C 22.828125 8.71875 22.652344 8.621094 22.5625 8.5 L 22.535156 8.460938 L 22.5 8.433594 C 22.394531 8.324219 22.269531 8.039062 22.140625 7.648438 L 22.136719 7.640625 C 21.785156 6.644531 21.785156 5.71875 21.285156 4.503906 L 21.277344 4.480469 L 21.265625 4.460938 C 21.210938 4.351562 21.140625 4.179688 21.003906 3.988281 C 20.863281 3.792969 20.566406 3.523438 20.167969 3.523438 L 19.667969 3.523438 L 19.625 3.527344 C 19.347656 3.566406 19.03125 3.488281 18.625 3.328125 C 18.234375 3.179688 17.777344 2.960938 17.246094 2.839844 C 17.074219 2.785156 16.898438 2.757812 16.699219 2.773438 C 16.496094 2.785156 16.242188 2.847656 16.023438 3.066406 C 15.804688 3.285156 15.765625 3.507812 15.730469 3.648438 C 15.691406 3.625 15.625 3.574219 15.429688 3.445312 C 14.976562 3.128906 14.457031 2.972656 13.972656 2.808594 C 13.695312 2.71875 13.539062 2.636719 13.324219 2.542969 C 13.332031 2.53125 13.34375 2.507812 13.34375 2.496094 C 13.453125 2.175781 13.390625 1.929688 13.300781 1.707031 C 13.210938 1.484375 13.078125 1.273438 12.832031 1.105469 L 12.800781 1.085938 L 12.761719 1.066406 C 12.582031 0.976562 12.429688 0.945312 12.304688 0.933594 Z M 26.375 18.394531 C 26.179688 18.78125 25.921875 19.234375 25.601562 19.425781 C 25.34375 19.558594 25.019531 19.6875 24.890625 19.945312 C 24.695312 20.269531 24.890625 20.65625 24.824219 20.980469 C 24.824219 21.109375 24.757812 21.238281 24.695312 21.367188 C 24.628906 21.691406 24.695312 22.078125 24.824219 22.402344 C 24.890625 22.597656 25.019531 22.855469 25.214844 22.917969 C 25.34375 22.917969 25.535156 22.855469 25.664062 22.726562 C 25.792969 22.597656 25.921875 22.339844 25.988281 22.144531 C 26.050781 21.949219 26.050781 21.753906 26.050781 21.5625 C 26.117188 20.980469 26.441406 20.394531 26.570312 19.816406 C 26.636719 19.425781 26.636719 19.039062 26.570312 18.652344 C 26.503906 18.523438 26.441406 18.394531 26.375 18.394531 Z M 20.554688 24.597656 L 20.558594 24.597656 C 20.558594 24.601562 20.554688 24.601562 20.554688 24.605469 C 20.539062 24.609375 20.597656 24.597656 20.554688 24.597656 Z M 20.554688 24.597656 " fill-opacity="1" fill-rule="nonzero"/></g><g clip-path="url(#f0b072a68b)"><g clip-path="url(#8d1b65aca5)"><path fill="#ffffff" d="M 28.5 26.128906 L 37.210938 26.128906 L 37.210938 34.839844 L 28.5 34.839844 Z M 28.5 26.128906 " fill-opacity="1" fill-rule="nonzero"/></g></g></svg>